<svg width="215" height="56" viewBox="0 0 215 56" fill="none" xmlns="http://www.w3.org/2000/svg">
<path d="M70.565 33.42C69.2583 33.42 68.115 33.175 67.135 32.685C66.155 32.195 65.3617 31.5067 64.755 30.62L64.265 33H60.275V7.8H64.755V18.125C65.315 17.355 66.05 16.6783 66.96 16.095C67.8933 15.5117 69.095 15.22 70.565 15.22C72.1983 15.22 73.6567 15.6167 74.94 16.41C76.2233 17.2033 77.2383 18.2883 77.985 19.665C78.7317 21.0417 79.105 22.605 79.105 24.355C79.105 26.105 78.7317 27.6683 77.985 29.045C77.2383 30.3983 76.2233 31.4717 74.94 32.265C73.6567 33.035 72.1983 33.42 70.565 33.42ZM69.62 29.5C71.0433 29.5 72.2217 29.0217 73.155 28.065C74.0883 27.1083 74.555 25.8717 74.555 24.355C74.555 22.8383 74.0883 21.59 73.155 20.61C72.2217 19.63 71.0433 19.14 69.62 19.14C68.1733 19.14 66.9833 19.63 66.05 20.61C65.14 21.5667 64.685 22.8033 64.685 24.32C64.685 25.8367 65.14 27.085 66.05 28.065C66.9833 29.0217 68.1733 29.5 69.62 29.5ZM90.492 33.42C88.742 33.42 87.1904 33.0467 85.837 32.3C84.4837 31.5533 83.422 30.5033 82.652 29.15C81.882 27.7967 81.497 26.2333 81.497 24.46C81.497 22.6633 81.8704 21.065 82.617 19.665C83.387 18.265 84.437 17.18 85.767 16.41C87.1204 15.6167 88.707 15.22 90.527 15.22C92.2304 15.22 93.7354 15.5933 95.042 16.34C96.3487 17.0867 97.3637 18.1133 98.087 19.42C98.8337 20.7033 99.207 22.1383 99.207 23.725C99.207 23.9817 99.1954 24.25 99.172 24.53C99.172 24.81 99.1604 25.1017 99.137 25.405H85.942C86.0354 26.7583 86.502 27.82 87.342 28.59C88.2054 29.36 89.2437 29.745 90.457 29.745C91.367 29.745 92.1254 29.5467 92.732 29.15C93.362 28.73 93.8287 28.1933 94.132 27.54H98.682C98.3554 28.6367 97.807 29.64 97.037 30.55C96.2904 31.4367 95.357 32.1367 94.237 32.65C93.1404 33.1633 91.892 33.42 90.492 33.42ZM90.527 18.86C89.4304 18.86 88.462 19.175 87.622 19.805C86.782 20.4117 86.2454 21.345 86.012 22.605H94.657C94.587 21.4617 94.167 20.5517 93.397 19.875C92.627 19.1983 91.6704 18.86 90.527 18.86ZM107.91 33.42C106.417 33.42 105.192 33.1867 104.235 32.72C103.278 32.23 102.567 31.5883 102.1 30.795C101.633 30.0017 101.4 29.1267 101.4 28.17C101.4 26.56 102.03 25.2533 103.29 24.25C104.55 23.2467 106.44 22.745 108.96 22.745H113.37V22.325C113.37 21.135 113.032 20.26 112.355 19.7C111.678 19.14 110.838 18.86 109.835 18.86C108.925 18.86 108.132 19.0817 107.455 19.525C106.778 19.945 106.358 20.575 106.195 21.415H101.82C101.937 20.155 102.357 19.0583 103.08 18.125C103.827 17.1917 104.783 16.48 105.95 15.99C107.117 15.4767 108.423 15.22 109.87 15.22C112.343 15.22 114.292 15.8383 115.715 17.075C117.138 18.3117 117.85 20.0617 117.85 22.325V33H114.035L113.615 30.2C113.102 31.1333 112.378 31.9033 111.445 32.51C110.535 33.1167 109.357 33.42 107.91 33.42ZM108.925 29.92C110.208 29.92 111.2 29.5 111.9 28.66C112.623 27.82 113.078 26.7817 113.265 25.545H109.45C108.26 25.545 107.408 25.7667 106.895 26.21C106.382 26.63 106.125 27.155 106.125 27.785C106.125 28.4617 106.382 28.9867 106.895 29.36C107.408 29.7333 108.085 29.92 108.925 29.92ZM137.805 15.64V33H133.85L133.5 30.06C132.964 31.0867 132.182 31.9033 131.155 32.51C130.152 33.1167 128.962 33.42 127.585 33.42C125.439 33.42 123.77 32.7433 122.58 31.39C121.39 30.0367 120.795 28.0533 120.795 25.44V15.64H125.275V25.02C125.275 26.5133 125.579 27.6567 126.185 28.45C126.792 29.2433 127.737 29.64 129.02 29.64C130.28 29.64 131.307 29.1967 132.1 28.31C132.917 27.4233 133.325 26.1867 133.325 24.6V15.64H137.805ZM149.054 33C147.234 33 145.776 32.5567 144.679 31.67C143.582 30.7833 143.034 29.2083 143.034 26.945V19.385H140.059V15.64H143.034L143.559 10.985H147.514V15.64H152.204V19.385H147.514V26.98C147.514 27.82 147.689 28.4033 148.039 28.73C148.412 29.0333 149.042 29.185 149.929 29.185H152.099V33H149.054ZM157.171 40.7L161.196 31.845H160.146L153.391 15.64H158.256L163.121 27.855L168.196 15.64H172.956L161.931 40.7H157.171ZM174.834 33V15.64H178.824L179.244 18.895C179.874 17.775 180.726 16.8883 181.799 16.235C182.896 15.5583 184.179 15.22 185.649 15.22V19.945H184.389C183.409 19.945 182.534 20.0967 181.764 20.4C180.994 20.7033 180.388 21.2283 179.944 21.975C179.524 22.7217 179.314 23.76 179.314 25.09V33H174.834ZM195.789 33.42C194.039 33.42 192.487 33.0467 191.134 32.3C189.78 31.5533 188.719 30.5033 187.949 29.15C187.179 27.7967 186.794 26.2333 186.794 24.46C186.794 22.6633 187.167 21.065 187.914 19.665C188.684 18.265 189.734 17.18 191.064 16.41C192.417 15.6167 194.004 15.22 195.824 15.22C197.527 15.22 199.032 15.5933 200.339 16.34C201.645 17.0867 202.66 18.1133 203.384 19.42C204.13 20.7033 204.504 22.1383 204.504 23.725C204.504 23.9817 204.492 24.25 204.469 24.53C204.469 24.81 204.457 25.1017 204.434 25.405H191.239C191.332 26.7583 191.799 27.82 192.639 28.59C193.502 29.36 194.54 29.745 195.754 29.745C196.664 29.745 197.422 29.5467 198.029 29.15C198.659 28.73 199.125 28.1933 199.429 27.54H203.979C203.652 28.6367 203.104 29.64 202.334 30.55C201.587 31.4367 200.654 32.1367 199.534 32.65C198.437 33.1633 197.189 33.42 195.789 33.42ZM195.824 18.86C194.727 18.86 193.759 19.175 192.919 19.805C192.079 20.4117 191.542 21.345 191.309 22.605H199.954C199.884 21.4617 199.464 20.5517 198.694 19.875C197.924 19.1983 196.967 18.86 195.824 18.86ZM207.222 33V7.8H211.702V33H207.222Z" fill="#0C1451"/>
<path d="M40.5667 32.0894C46.4858 25.7292 46.0054 15.6704 45.9815 15.2362C45.9436 14.5504 45.3958 14.0029 44.71 13.965C44.5047 13.9534 41.5971 13.8116 37.9587 14.5522C37.241 10.8662 35.9836 8.21799 35.9239 8.09339C35.6267 7.47425 34.9114 7.17802 34.2628 7.40546C34.1326 7.45109 31.3727 8.43384 28.2605 10.5317C26.219 7.44898 24.0694 5.49647 23.8988 5.34379C23.3875 4.8854 22.613 4.8854 22.1013 5.34379C21.9307 5.49647 19.7811 7.44898 17.7396 10.532C14.6274 8.43419 11.8671 7.45109 11.7373 7.40546C11.0891 7.17838 10.3735 7.47425 10.0762 8.09339C10.0165 8.21799 8.75873 10.8662 8.04138 14.5525C4.40305 13.812 1.49505 13.9538 1.28974 13.965C0.603981 14.0029 0.0564945 14.5504 0.0185916 15.2366C-0.00562419 15.6704 -0.485728 25.7292 5.43345 32.0894C2.41771 33.759 0.443245 35.9404 0.34568 36.0492C-0.112314 36.5609 -0.112314 37.3355 0.34568 37.8473C0.560112 38.0866 5.66859 43.709 12.1746 43.709C13.8651 43.709 15.4605 43.3289 16.9012 42.7628C18.3987 47.2996 21.9346 50.5069 22.1009 50.6564C22.3568 50.8852 22.6786 51 23.0001 51C23.3215 51 23.643 50.8852 23.8988 50.6564C24.0656 50.5072 27.6007 47.2996 29.0986 42.7631C30.5392 43.3289 32.1347 43.709 33.8252 43.709C40.3312 43.709 45.44 38.0866 45.6544 37.8473C46.1124 37.3355 46.1124 36.5609 45.6544 36.0492C45.5565 35.94 43.5817 33.7587 40.5667 32.0894ZM38.2739 30.5861C34.7686 34.0917 29.5474 35.1661 26.2271 35.4848C28.6227 32.6239 31.9971 27.547 31.9971 21.648C31.9971 20.9878 31.9536 20.3385 31.8753 19.7007C35.9653 17.1733 40.9861 16.7202 43.2932 16.6553C43.2167 19.4642 42.5682 26.2915 38.2739 30.5861ZM33.9824 10.432C34.3888 11.4944 34.9605 13.1998 35.3427 15.2201C34.0003 15.6374 32.625 16.1892 31.2983 16.9175C30.8758 15.4633 30.2932 14.0998 29.6383 12.8545C31.3359 11.6973 32.9447 10.8953 33.9824 10.432ZM23.0015 8.24817C24.6825 10.0238 28.2068 14.2559 29.0947 19.3252C29.0951 19.3259 29.0951 19.3266 29.0954 19.3277C29.2277 20.084 29.3018 20.8593 29.3018 21.648C29.3018 27.7003 24.9324 32.9991 23.0001 35.0461C21.0677 32.9991 16.698 27.7003 16.698 21.648C16.698 15.5935 21.0709 10.293 23.0015 8.24817ZM12.0173 10.432C13.0551 10.8956 14.6642 11.6976 16.3614 12.8548C15.7065 14.0998 15.124 15.4633 14.7014 16.9175C13.3748 16.1892 11.9994 15.6374 10.657 15.2201C11.0392 13.1998 11.6113 11.4941 12.0173 10.432ZM14.1245 19.7007C14.0462 20.3385 14.003 20.9878 14.003 21.648C14.003 27.5505 17.3809 32.6296 19.7766 35.4897C16.4607 35.1752 11.2435 34.104 7.72552 30.5861C3.4446 26.3048 2.78937 19.4645 2.70865 16.6532C5.01406 16.7156 10.0243 17.1649 14.1245 19.7007ZM3.27333 36.9463C4.18125 36.1236 5.70509 34.9046 7.58444 34.0131C11.5063 36.9351 16.3509 37.8887 19.5705 38.1856C18.9034 38.6801 18.1215 39.1933 17.2543 39.6446C17.2058 39.6657 17.1591 39.6903 17.1142 39.7166C15.6546 40.4568 13.963 41.0138 12.1746 41.0138C8.30144 41.0138 4.85648 38.3765 3.27333 36.9463ZM22.998 47.7285C21.9163 46.5351 20.1493 44.2804 19.3491 41.5631C20.9298 40.6337 22.1901 39.591 22.9997 38.8458C23.8094 39.591 25.0696 40.6337 26.65 41.5628C25.8509 44.2699 24.0796 46.5316 22.998 47.7285ZM33.8252 41.0138C30.92 41.0138 28.2563 39.5302 26.4376 38.1846C29.6573 37.8869 34.4969 36.9323 38.415 34.0135C40.2873 34.9025 41.8161 36.1257 42.7271 36.9494C41.1486 38.3808 37.7155 41.0138 33.8252 41.0138Z" fill="#FE9B8E"/>
<path opacity="0.7" d="M59.962 50.9998V41.8998H63.16C63.8013 41.8998 64.33 42.0038 64.746 42.2118C65.1707 42.4111 65.487 42.6884 65.695 43.0438C65.903 43.3904 66.007 43.7804 66.007 44.2138C66.007 44.8031 65.8467 45.2668 65.526 45.6048C65.214 45.9428 64.837 46.1768 64.395 46.3068C64.733 46.3674 65.0407 46.5018 65.318 46.7098C65.5953 46.9178 65.812 47.1778 65.968 47.4898C66.1327 47.8018 66.215 48.1441 66.215 48.5168C66.215 48.9761 66.1023 49.3964 65.877 49.7778C65.6517 50.1504 65.318 50.4494 64.876 50.6748C64.434 50.8914 63.8967 50.9998 63.264 50.9998H59.962ZM61.054 45.8778H63.082C63.6627 45.8778 64.109 45.7434 64.421 45.4748C64.733 45.1974 64.889 44.8161 64.889 44.3308C64.889 43.8714 64.733 43.5031 64.421 43.2258C64.1177 42.9484 63.6583 42.8098 63.043 42.8098H61.054V45.8778ZM61.054 50.0898H63.147C63.771 50.0898 64.252 49.9468 64.59 49.6608C64.928 49.3661 65.097 48.9588 65.097 48.4388C65.097 47.9274 64.9193 47.5201 64.564 47.2168C64.2087 46.9048 63.7277 46.7488 63.121 46.7488H61.054V50.0898ZM67.7823 50.9998V41.8998H73.4113V42.7968H68.8743V45.9688H73.0213V46.8528H68.8743V50.1028H73.4113V50.9998H67.7823ZM74.5482 50.9998L77.9022 41.8998H79.0592L82.4002 50.9998H81.2432L80.4112 48.6598H76.5372L75.6922 50.9998H74.5482ZM76.8622 47.7758H80.0862L78.4742 43.2778L76.8622 47.7758ZM86.6485 51.1558C86.0245 51.1558 85.4568 51.0344 84.9455 50.7918C84.4428 50.5404 84.0398 50.1548 83.7365 49.6348C83.4331 49.1148 83.2815 48.4518 83.2815 47.6458V41.8998H84.3735V47.6588C84.3735 48.5428 84.5858 49.1841 85.0105 49.5828C85.4351 49.9814 85.9898 50.1808 86.6745 50.1808C87.3591 50.1808 87.9095 49.9814 88.3255 49.5828C88.7415 49.1841 88.9495 48.5428 88.9495 47.6588V41.8998H90.0415V47.6458C90.0415 48.4518 89.8898 49.1148 89.5865 49.6348C89.2831 50.1548 88.8758 50.5404 88.3645 50.7918C87.8531 51.0344 87.2811 51.1558 86.6485 51.1558ZM94.0227 50.9998V42.7968H91.3057V41.8998H97.8317V42.7968H95.1147V50.9998H94.0227ZM101.427 50.9998V47.5418L98.4631 41.8998H99.6981L101.973 46.5018L104.248 41.8998H105.47L102.519 47.5418V50.9998H101.427ZM113.033 51.1558C112.366 51.1558 111.785 51.0344 111.291 50.7918C110.797 50.5491 110.416 50.2111 110.147 49.7778C109.878 49.3444 109.744 48.8418 109.744 48.2698H110.888C110.888 48.6251 110.97 48.9544 111.135 49.2578C111.3 49.5524 111.538 49.7908 111.85 49.9728C112.171 50.1461 112.565 50.2328 113.033 50.2328C113.648 50.2328 114.125 50.0854 114.463 49.7908C114.801 49.4961 114.97 49.1278 114.97 48.6858C114.97 48.3218 114.892 48.0314 114.736 47.8148C114.58 47.5894 114.368 47.4074 114.099 47.2688C113.839 47.1301 113.536 47.0088 113.189 46.9048C112.851 46.8008 112.496 46.6838 112.123 46.5538C111.421 46.3111 110.901 46.0121 110.563 45.6568C110.225 45.2928 110.056 44.8204 110.056 44.2398C110.047 43.7544 110.16 43.3254 110.394 42.9528C110.628 42.5714 110.957 42.2768 111.382 42.0688C111.815 41.8521 112.327 41.7438 112.916 41.7438C113.497 41.7438 113.999 41.8521 114.424 42.0688C114.857 42.2854 115.191 42.5844 115.425 42.9658C115.668 43.3471 115.793 43.7804 115.802 44.2658H114.658C114.658 44.0144 114.593 43.7674 114.463 43.5248C114.333 43.2734 114.134 43.0698 113.865 42.9138C113.605 42.7578 113.276 42.6798 112.877 42.6798C112.383 42.6711 111.976 42.7968 111.655 43.0568C111.343 43.3168 111.187 43.6764 111.187 44.1358C111.187 44.5258 111.295 44.8248 111.512 45.0328C111.737 45.2408 112.049 45.4141 112.448 45.5528C112.847 45.6828 113.306 45.8344 113.826 46.0078C114.259 46.1638 114.649 46.3458 114.996 46.5538C115.343 46.7618 115.611 47.0304 115.802 47.3598C116.001 47.6891 116.101 48.1094 116.101 48.6208C116.101 49.0541 115.988 49.4658 115.763 49.8558C115.538 50.2371 115.195 50.5491 114.736 50.7918C114.285 51.0344 113.718 51.1558 113.033 51.1558ZM117.078 50.9998L120.432 41.8998H121.589L124.93 50.9998H123.773L122.941 48.6598H119.067L118.222 50.9998H117.078ZM119.392 47.7758H122.616L121.004 43.2778L119.392 47.7758ZM126.282 50.9998V41.8998H127.374V50.1288H131.612V50.9998H126.282ZM136.396 51.1558C135.503 51.1558 134.719 50.9608 134.043 50.5708C133.375 50.1721 132.851 49.6174 132.47 48.9068C132.097 48.1961 131.911 47.3771 131.911 46.4498C131.911 45.5224 132.097 44.7078 132.47 44.0058C132.851 43.2951 133.375 42.7404 134.043 42.3418C134.719 41.9431 135.503 41.7438 136.396 41.7438C137.297 41.7438 138.081 41.9431 138.749 42.3418C139.425 42.7404 139.949 43.2951 140.322 44.0058C140.694 44.7078 140.881 45.5224 140.881 46.4498C140.881 47.3771 140.694 48.1961 140.322 48.9068C139.949 49.6174 139.425 50.1721 138.749 50.5708C138.081 50.9608 137.297 51.1558 136.396 51.1558ZM136.396 50.1938C137.063 50.1938 137.648 50.0464 138.151 49.7518C138.662 49.4484 139.056 49.0194 139.334 48.4648C139.62 47.9014 139.763 47.2298 139.763 46.4498C139.763 45.6698 139.62 45.0024 139.334 44.4478C139.056 43.8931 138.662 43.4684 138.151 43.1738C137.648 42.8704 137.063 42.7188 136.396 42.7188C135.728 42.7188 135.139 42.8704 134.628 43.1738C134.125 43.4684 133.731 43.8931 133.445 44.4478C133.167 45.0024 133.029 45.6698 133.029 46.4498C133.029 47.2298 133.167 47.9014 133.445 48.4648C133.731 49.0194 134.125 49.4484 134.628 49.7518C135.139 50.0464 135.728 50.1938 136.396 50.1938ZM142.456 50.9998V41.8998H143.548L148.397 49.1928V41.8998H149.489V50.9998H148.397L143.548 43.7068V50.9998H142.456Z" fill="#494F7C"/>
</svg>
