<svg width="153" height="38" viewBox="0 0 153 38" fill="none" xmlns="http://www.w3.org/2000/svg">
<path d="M40.2014 13.3147H55.6904V16.2045H49.6001V32.4498H46.2511V16.2045H40.1879V13.3147H40.2014ZM55.0287 18.5947H57.8916V21.2685H57.9456C58.0401 20.8904 58.2157 20.5258 58.4722 20.1747C58.7288 19.8236 59.0394 19.486 59.404 19.2024C59.7686 18.9053 60.1737 18.6758 60.6194 18.4867C61.065 18.3112 61.5241 18.2166 61.9833 18.2166C62.3344 18.2166 62.5909 18.2301 62.726 18.2436C62.861 18.2572 62.9961 18.2842 63.1446 18.2977V21.2415C62.9285 21.201 62.7125 21.174 62.4829 21.147C62.2534 21.12 62.0373 21.1065 61.8212 21.1065C61.3081 21.1065 60.8219 21.2145 60.3628 21.4171C59.9037 21.6196 59.512 21.9302 59.1744 22.3218C58.8368 22.727 58.5668 23.2131 58.3642 23.8073C58.1616 24.4015 58.0671 25.0767 58.0671 25.8464V32.4363H55.0152V18.5947H55.0287ZM77.1752 32.4498H74.1773V30.5188H74.1233C73.7452 31.221 73.1916 31.7746 72.4488 32.1932C71.7061 32.6119 70.9499 32.8279 70.1802 32.8279C68.3571 32.8279 67.0338 32.3823 66.2235 31.4775C65.4133 30.5728 65.0082 29.2089 65.0082 27.3858V18.5947H68.0601V27.0887C68.0601 28.3041 68.2896 29.1684 68.7623 29.668C69.2214 30.1676 69.8831 30.4242 70.7203 30.4242C71.3685 30.4242 71.8952 30.3297 72.3273 30.1271C72.7594 29.9246 73.1105 29.668 73.3671 29.3304C73.6372 29.0063 73.8262 28.6012 73.9478 28.1421C74.0693 27.6829 74.1233 27.1833 74.1233 26.6431V18.6083H77.1752V32.4498ZM82.3743 28.007C82.4688 28.8983 82.8064 29.5195 83.3871 29.8841C83.9812 30.2352 84.6834 30.4242 85.5072 30.4242C85.7908 30.4242 86.1149 30.3972 86.4795 30.3567C86.8441 30.3162 87.1952 30.2217 87.5058 30.1001C87.8299 29.9786 88.0864 29.7895 88.3025 29.5465C88.5051 29.3034 88.5996 28.9928 88.5861 28.6012C88.5726 28.2096 88.424 27.8855 88.154 27.6424C87.8839 27.3858 87.5463 27.1968 87.1277 27.0347C86.709 26.8862 86.2364 26.7511 85.6962 26.6431C85.1561 26.5351 84.6159 26.4135 84.0623 26.292C83.4951 26.1705 82.9414 26.0084 82.4148 25.8329C81.8881 25.6573 81.4155 25.4143 80.9969 25.1037C80.5782 24.8066 80.2406 24.415 79.9976 23.9423C79.741 23.4697 79.6194 22.889 79.6194 22.1868C79.6194 21.4306 79.8085 20.8094 80.1731 20.2962C80.5377 19.7831 81.0104 19.378 81.564 19.0674C82.1312 18.7568 82.7524 18.5407 83.4411 18.4057C84.1298 18.2842 84.7915 18.2166 85.4127 18.2166C86.1284 18.2166 86.8171 18.2977 87.4653 18.4462C88.1134 18.5947 88.7076 18.8378 89.2343 19.1889C89.7609 19.5265 90.1931 19.9722 90.5442 20.5123C90.8953 21.0525 91.1113 21.7142 91.2059 22.4839H88.0189C87.8704 21.7547 87.5463 21.255 87.0196 21.012C86.493 20.7554 85.8853 20.6338 85.2101 20.6338C84.994 20.6338 84.7375 20.6474 84.4404 20.6879C84.1433 20.7284 83.8732 20.7959 83.6031 20.8904C83.3465 20.985 83.1305 21.1335 82.9414 21.3225C82.7659 21.5116 82.6713 21.7547 82.6713 22.0653C82.6713 22.4434 82.8064 22.7405 83.063 22.97C83.3195 23.1996 83.6571 23.3887 84.0758 23.5507C84.4944 23.6992 84.967 23.8343 85.5072 23.9423C86.0473 24.0504 86.601 24.1719 87.1682 24.2934C87.7218 24.415 88.262 24.577 88.8021 24.7526C89.3423 24.9281 89.8149 25.1712 90.2336 25.4818C90.6522 25.7924 90.9898 26.1705 91.2464 26.6296C91.5029 27.0887 91.638 27.6694 91.638 28.3446C91.638 29.1684 91.4489 29.8571 91.0708 30.4377C90.6927 31.0049 90.2066 31.4775 89.6124 31.8286C89.0182 32.1797 88.343 32.4498 87.6138 32.6119C86.8846 32.7739 86.1554 32.8549 85.4397 32.8549C84.5619 32.8549 83.7517 32.7604 83.0089 32.5578C82.2662 32.3553 81.618 32.0582 81.0779 31.6666C80.5377 31.2615 80.1056 30.7618 79.795 30.1676C79.4844 29.5735 79.3224 28.8578 79.2954 28.034H82.3743V28.007ZM92.4482 18.5947H94.7574V14.4355H97.8093V18.5947H100.564V20.8769H97.8093V28.2771C97.8093 28.6012 97.8228 28.8713 97.8498 29.1143C97.8768 29.3439 97.9443 29.5465 98.0389 29.7085C98.1334 29.8706 98.2819 29.9921 98.4845 30.0731C98.687 30.1541 98.9436 30.1947 99.2947 30.1947C99.5108 30.1947 99.7269 30.1947 99.9429 30.1812C100.159 30.1676 100.375 30.1406 100.591 30.0866V32.4498C100.254 32.4903 99.9159 32.5173 99.6053 32.5578C99.2812 32.5984 98.9571 32.6119 98.6195 32.6119C97.8093 32.6119 97.1611 32.5308 96.675 32.3823C96.1888 32.2338 95.7972 32.0042 95.5271 31.7071C95.2435 31.41 95.068 31.0454 94.96 30.5998C94.8654 30.1541 94.7979 29.641 94.7844 29.0738V20.9039H92.4752V18.5947H92.4482ZM102.725 18.5947H105.615V20.4718H105.669C106.101 19.6616 106.695 19.0944 107.465 18.7433C108.234 18.3922 109.058 18.2166 109.963 18.2166C111.057 18.2166 112.002 18.4057 112.812 18.7973C113.622 19.1754 114.298 19.7021 114.838 20.3773C115.378 21.0525 115.77 21.8357 116.04 22.727C116.31 23.6182 116.445 24.577 116.445 25.5898C116.445 26.5216 116.323 27.4263 116.08 28.2906C115.837 29.1684 115.472 29.9381 114.986 30.6133C114.5 31.2885 113.879 31.8151 113.123 32.2203C112.367 32.6254 111.489 32.8279 110.463 32.8279C110.017 32.8279 109.571 32.7874 109.126 32.7064C108.68 32.6254 108.248 32.4903 107.843 32.3148C107.438 32.1392 107.046 31.9097 106.708 31.6261C106.357 31.3425 106.074 31.0184 105.831 30.6538H105.777V37.5678H102.725V18.5947V18.5947ZM113.393 25.5358C113.393 24.9146 113.312 24.3069 113.15 23.7128C112.988 23.1186 112.745 22.6054 112.421 22.1463C112.096 21.6872 111.691 21.3225 111.219 21.0525C110.733 20.7824 110.179 20.6338 109.558 20.6338C108.275 20.6338 107.303 21.0795 106.654 21.9707C106.006 22.862 105.682 24.0504 105.682 25.5358C105.682 26.238 105.763 26.8862 105.939 27.4804C106.114 28.0745 106.357 28.5877 106.708 29.0198C107.046 29.4519 107.451 29.7895 107.924 30.0326C108.396 30.2892 108.95 30.4107 109.571 30.4107C110.273 30.4107 110.854 30.2622 111.34 29.9786C111.826 29.695 112.218 29.3169 112.529 28.8713C112.839 28.4121 113.069 27.899 113.204 27.3183C113.325 26.7376 113.393 26.1435 113.393 25.5358V25.5358ZM118.781 13.3147H121.833V16.2045H118.781V13.3147ZM118.781 18.5947H121.833V32.4498H118.781V18.5947ZM124.561 13.3147H127.613V32.4498H124.561V13.3147ZM136.971 32.8279C135.863 32.8279 134.878 32.6389 134.013 32.2743C133.149 31.9097 132.42 31.3965 131.812 30.7618C131.218 30.1136 130.759 29.3439 130.448 28.4526C130.138 27.5614 129.976 26.5756 129.976 25.5088C129.976 24.4555 130.138 23.4832 130.448 22.5919C130.759 21.7007 131.218 20.9309 131.812 20.2827C132.406 19.6346 133.149 19.1349 134.013 18.7703C134.878 18.4057 135.863 18.2166 136.971 18.2166C138.078 18.2166 139.064 18.4057 139.928 18.7703C140.792 19.1349 141.522 19.6481 142.129 20.2827C142.723 20.9309 143.183 21.7007 143.493 22.5919C143.804 23.4832 143.966 24.4555 143.966 25.5088C143.966 26.5756 143.804 27.5614 143.493 28.4526C143.183 29.3439 142.723 30.1136 142.129 30.7618C141.535 31.41 140.792 31.9097 139.928 32.2743C139.064 32.6389 138.078 32.8279 136.971 32.8279V32.8279ZM136.971 30.4107C137.646 30.4107 138.24 30.2622 138.74 29.9786C139.239 29.695 139.645 29.3169 139.969 28.8578C140.293 28.3986 140.522 27.872 140.684 27.2913C140.833 26.7106 140.914 26.1165 140.914 25.5088C140.914 24.9146 140.833 24.3339 140.684 23.7398C140.536 23.1456 140.293 22.6324 139.969 22.1733C139.645 21.7142 139.239 21.3496 138.74 21.066C138.24 20.7824 137.646 20.6338 136.971 20.6338C136.296 20.6338 135.701 20.7824 135.202 21.066C134.702 21.3496 134.297 21.7277 133.973 22.1733C133.649 22.6324 133.419 23.1456 133.257 23.7398C133.109 24.3339 133.028 24.9146 133.028 25.5088C133.028 26.1165 133.109 26.7106 133.257 27.2913C133.406 27.872 133.649 28.3986 133.973 28.8578C134.297 29.3169 134.702 29.695 135.202 29.9786C135.701 30.2757 136.296 30.4107 136.971 30.4107V30.4107ZM144.857 18.5947H147.166V14.4355H150.218V18.5947H152.973V20.8769H150.218V28.2771C150.218 28.6012 150.232 28.8713 150.259 29.1143C150.286 29.3439 150.353 29.5465 150.448 29.7085C150.542 29.8706 150.691 29.9921 150.893 30.0731C151.096 30.1541 151.353 30.1947 151.704 30.1947C151.92 30.1947 152.136 30.1947 152.352 30.1812C152.568 30.1676 152.784 30.1406 153 30.0866V32.4498C152.662 32.4903 152.325 32.5173 152.014 32.5578C151.69 32.5984 151.366 32.6119 151.028 32.6119C150.218 32.6119 149.57 32.5308 149.084 32.3823C148.598 32.2338 148.206 32.0042 147.936 31.7071C147.652 31.41 147.477 31.0454 147.369 30.5998C147.274 30.1541 147.207 29.641 147.193 29.0738V20.9039H144.884V18.5947H144.857Z" fill="#0C1451"/>
<path d="M36.6363 13.3149H22.6462L18.3249 0L13.9901 13.3149L0 13.3014L11.3298 21.5388L6.99505 34.8402L18.3249 26.6163L29.6412 34.8402L25.3199 21.5388L36.6363 13.3149Z" fill="#00B177"/>
<path d="M26.2924 24.5502L25.3201 21.5388L18.325 26.6163L26.2924 24.5502Z" fill="white"/>
</svg>
